<svg id="SvgjsSvg1001" width="256" height="256" xmlns="http://www.w3.org/2000/svg" version="1.1" xmlns:xlink="http://www.w3.org/1999/xlink" xmlns:svgjs="http://svgjs.com/svgjs"><defs id="SvgjsDefs1002"></defs><g id="SvgjsG1008"><svg xmlns="http://www.w3.org/2000/svg" viewBox="0 0 74 74" width="256" height="256"><path d="M35.1 38.5c.5.1 1-.3 1.1-.9l.1-1c.1-.5-.3-1-.9-1.1-.5-.1-1 .3-1.1.9l-.1 1c0 .5.4 1 .9 1.1zm-1.9 14.8c.5.1 1-.3 1.1-.9l1.3-10.2c.1-.5-.3-1-.9-1.1-.5-.1-1 .3-1.1.9l-1.3 10.2c0 .5.4 1 .9 1.1z" fill="#000000" class="color000 svgShape"></path><path d="M51.9 64.7 47 54.5l-3.2-24.6 3.1-9.3c.2-.3.3-.6.3-1 0-2.5-4.6-3.7-9.2-3.8v-5.6h3.2c.6 0 1-.4 1-1s-.4-1-1-1H38V5.5c0-.6-.4-1-1-1s-1 .4-1 1v2.6h-3.2c-.6 0-1 .4-1 1s.4 1 1 1H36v5.6c-4.6.2-9.2 1.4-9.2 3.8 0 .4.1.7.3 1l3.1 9.3L27 54.5l-4.9 10.3c0 .1-.1.2-.1.4 0 1.1 0 4.3 15 4.3s15-3.3 15-4.3c0-.2-.1-.3-.1-.5zM32.2 29.6c0-.2-2.4-7-2.4-7.2 2 .7 4.6 1 7.2 1 2.6 0 5.2-.3 7.2-1-.1.2-2.4 7-2.4 7.2-.4.3-2.1.9-4.8.9-2.7 0-4.4-.5-4.8-.9zM36 17.7V19c0 .6.4 1 1 1s1-.4 1-1v-1.3c4.6.2 7 1.3 7.2 1.8-.2.5-3 1.9-8.2 1.9-4.9 0-7.7-1.2-8.1-1.7 0 0 0-.1-.1-.1.2-.5 2.6-1.7 7.2-1.9zm-4 14c1.3.6 3.3.8 5 .8s3.7-.2 5-.8l3 23c-.2.5-2.9 1.8-8 1.8-5.2 0-7.8-1.3-8-1.8l3-23zm5 35.8c-9.9 0-12.6-1.5-12.9-2.2l4.1-8.6c1.8 1.3 5.3 1.9 8.8 1.9 2.7 0 6.8-.4 8.8-1.9l4.1 8.6c-.3.7-3.1 2.2-12.9 2.2z" fill="#000000" class="color000 svgShape"></path></svg></g></svg>